<svg width="120" height="34" viewBox="0 0 120 34" fill="none" xmlns="http://www.w3.org/2000/svg">
<g clip-path="url(#clip0_753_28575)">
<rect width="34" height="34" rx="17" fill="#3DCBB1"/>
<rect x="3.71875" y="3.71875" width="26.5625" height="26.5625" rx="13.2812" fill="#3DCBB1"/>
<path d="M23.5307 18.9882C27.0502 18.9882 29.1925 21.2529 29.1925 25.4151V34.7188H23.5307V26.1802C23.5307 25.1396 23.041 24.4357 21.9699 24.4357C20.6539 24.4357 20.1642 25.4763 20.1642 26.7004V34.7188H14.5024V26.1802C14.5024 25.1396 14.0128 24.4357 12.9416 24.4357C11.6256 24.4357 11.136 25.4763 11.136 26.7004V34.7188H5.47417V19.4166H11.136V20.855C12.0235 19.7533 13.4313 18.9882 15.2981 18.9882C17.0426 18.9882 18.328 19.6309 19.1237 20.8856C20.103 19.7533 21.4802 18.9882 23.5307 18.9882Z" fill="white"/>
</g>
<path d="M50.0666 11.9256V21.7695H47.8166V16.046L45.2712 20.2226H45.0181L42.4727 16.046V21.7695H40.2227V11.9256H42.4727L45.1446 16.2991L47.8166 11.9256H50.0666ZM56.118 14.7381H58.3681L55.9633 21.5586C55.1758 23.7946 53.9242 24.6805 51.9554 24.5821V22.6133C52.9398 22.6133 53.4039 22.3039 53.7133 21.4461L50.9148 14.7381H53.2351L54.7961 19.0414L56.118 14.7381ZM63.9126 21.9664C60.9454 21.9664 58.7938 19.7445 58.7938 16.8476C58.7938 13.9506 60.9454 11.7287 63.9126 11.7287C65.6986 11.7287 67.2736 12.6147 68.1315 14.0069L66.1908 15.1319C65.7549 14.3725 64.9111 13.9225 63.9126 13.9225C62.1689 13.9225 61.0438 15.0897 61.0438 16.8476C61.0438 18.6054 62.1689 19.7726 63.9126 19.7726C64.9111 19.7726 65.7689 19.3226 66.1908 18.5632L68.1315 19.6882C67.2877 21.0805 65.7127 21.9664 63.9126 21.9664ZM72.5594 21.9664C70.4922 21.9664 68.8327 20.3492 68.8327 18.2538C68.8327 16.1585 70.4922 14.5413 72.5594 14.5413C74.6266 14.5413 76.286 16.1585 76.286 18.2538C76.286 20.3492 74.6266 21.9664 72.5594 21.9664ZM72.5594 19.9132C73.4735 19.9132 74.1766 19.2523 74.1766 18.2538C74.1766 17.2554 73.4735 16.5944 72.5594 16.5944C71.6453 16.5944 70.9422 17.2554 70.9422 18.2538C70.9422 19.2523 71.6453 19.9132 72.5594 19.9132ZM82.0214 14.7381H84.1309V21.7695H82.0214V21.1086C81.6417 21.6289 80.9386 21.9664 80.0105 21.9664C78.5901 21.9664 77.3807 20.9539 77.3807 19.0554V14.7381H79.4901V18.746C79.4901 19.6179 80.0386 20.0257 80.7136 20.0257C81.4871 20.0257 82.0214 19.5757 82.0214 18.5773V14.7381ZM87.7873 15.9897C88.0685 15.0475 89.0108 14.5975 89.8967 14.5975V16.9882C89.0248 16.8476 87.7873 17.1991 87.7873 18.5913V21.7695H85.6779V14.7381H87.7873V15.9897ZM92.6737 16.7913C92.6737 17.5929 96.1331 17.0585 96.1331 19.6601C96.1331 21.2773 94.7268 21.9664 93.2081 21.9664C91.8018 21.9664 90.733 21.432 90.1846 20.2929L92.0127 19.2523C92.1955 19.7867 92.5893 20.082 93.2081 20.082C93.7143 20.082 93.9674 19.9273 93.9674 19.6461C93.9674 18.8726 90.508 19.2804 90.508 16.8476C90.508 15.3147 91.8018 14.5413 93.2643 14.5413C94.4034 14.5413 95.4159 15.0475 96.0065 16.046L94.2065 17.0163C94.0096 16.6507 93.7284 16.3975 93.2643 16.3975C92.8987 16.3975 92.6737 16.5382 92.6737 16.7913ZM99.002 19.0976C99.2692 19.8289 99.9161 20.082 100.69 20.082C101.266 20.082 101.758 19.857 102.04 19.5476L103.727 20.5179C103.038 21.4742 101.997 21.9664 100.661 21.9664C98.2567 21.9664 96.766 20.3492 96.766 18.2538C96.766 16.1585 98.2848 14.5413 100.507 14.5413C102.56 14.5413 104.079 16.1304 104.079 18.2538C104.079 18.5492 104.051 18.8304 103.994 19.0976H99.002ZM98.9598 17.5226H101.983C101.758 16.7069 101.126 16.4116 100.493 16.4116C99.6911 16.4116 99.1567 16.8054 98.9598 17.5226ZM105.907 21.9664C105.176 21.9664 104.571 21.3617 104.571 20.6304C104.571 19.8992 105.176 19.2945 105.907 19.2945C106.639 19.2945 107.243 19.8992 107.243 20.6304C107.243 21.3617 106.639 21.9664 105.907 21.9664ZM109.708 14.1194C109.019 14.1194 108.443 13.5428 108.443 12.8537C108.443 12.1646 109.019 11.5881 109.708 11.5881C110.397 11.5881 110.974 12.1646 110.974 12.8537C110.974 13.5428 110.397 14.1194 109.708 14.1194ZM108.653 21.7695V14.7381H110.763V21.7695H108.653ZM115.682 21.9664C113.614 21.9664 111.955 20.3492 111.955 18.2538C111.955 16.1585 113.614 14.5413 115.682 14.5413C117.749 14.5413 119.408 16.1585 119.408 18.2538C119.408 20.3492 117.749 21.9664 115.682 21.9664ZM115.682 19.9132C116.596 19.9132 117.299 19.2523 117.299 18.2538C117.299 17.2554 116.596 16.5944 115.682 16.5944C114.768 16.5944 114.064 17.2554 114.064 18.2538C114.064 19.2523 114.768 19.9132 115.682 19.9132Z" fill="black"/>
<defs>
<clipPath id="clip0_753_28575">
<rect width="34" height="34" rx="17" fill="white"/>
</clipPath>
</defs>
</svg>
