<svg width="18" height="18" viewBox="0 0 18 18" fill="none" xmlns="http://www.w3.org/2000/svg">
<g id="supervised_user_circle_24px">
<path id="icon/action/supervised_user_circle_24px" fill-rule="evenodd" clip-rule="evenodd" d="M9 1.5C4.86 1.5 1.5 4.86 1.5 9C1.5 13.14 4.86 16.5 9 16.5C13.14 16.5 16.5 13.14 16.5 9C16.5 4.86 13.14 1.5 9 1.5ZM11.7075 6.25499C12.51 6.25499 13.155 6.89999 13.155 7.70249C13.155 8.50499 12.51 9.14999 11.7075 9.14999C10.905 9.14999 10.26 8.50499 10.26 7.70249C10.2525 6.89999 10.905 6.25499 11.7075 6.25499ZM8.9775 6.84C8.9775 5.865 8.1825 5.07 7.2075 5.07C6.225 5.07 5.4375 5.8575 5.4375 6.84C5.4375 7.815 6.2325 8.61 7.2075 8.61C8.1825 8.61 8.9775 7.815 8.9775 6.84ZM7.20751 11.9175V14.73C5.40751 14.1675 3.98251 12.78 3.35251 11.01C4.14001 10.17 6.10501 9.7425 7.20751 9.7425C7.60501 9.7425 8.10751 9.8025 8.63251 9.9075C7.40251 10.56 7.20751 11.4225 7.20751 11.9175ZM8.40751 14.97C8.60251 14.9925 8.79751 15 9.00001 15C11.5425 15 13.71 13.41 14.5875 11.1825C13.8975 10.6125 12.51 10.32 11.7075 10.32C10.6125 10.32 8.40751 10.8525 8.40751 11.9175V14.97Z" fill="#3DCBB1"/>
</g>
</svg>
