<svg width="20" height="20" viewBox="0 0 20 20" fill="none" xmlns="http://www.w3.org/2000/svg">
<path fill-rule="evenodd" clip-rule="evenodd" d="M1.66357 2.50008C1.66357 2.95841 2.03857 3.33341 2.4969 3.33341H3.33023L6.33023 9.65841L5.20523 11.6917C4.5969 12.8084 5.3969 14.1667 6.66357 14.1667H15.8302C16.2886 14.1667 16.6636 13.7917 16.6636 13.3334C16.6636 12.8751 16.2886 12.5001 15.8302 12.5001H6.66357L7.58023 10.8334H13.7886C14.4136 10.8334 14.9636 10.4917 15.2469 9.97508L18.2302 4.56675C18.5386 4.01675 18.1386 3.33341 17.5052 3.33341H5.1719L4.61357 2.14175C4.48023 1.85008 4.18023 1.66675 3.86357 1.66675H2.4969C2.03857 1.66675 1.66357 2.04175 1.66357 2.50008ZM6.66357 15.0001C5.7469 15.0001 5.00523 15.7501 5.00523 16.6667C5.00523 17.5834 5.7469 18.3334 6.66357 18.3334C7.58023 18.3334 8.33023 17.5834 8.33023 16.6667C8.33023 15.7501 7.58023 15.0001 6.66357 15.0001ZM13.3386 16.6667C13.3386 15.7501 14.0802 15.0001 14.9969 15.0001C15.9136 15.0001 16.6636 15.7501 16.6636 16.6667C16.6636 17.5834 15.9136 18.3334 14.9969 18.3334C14.0802 18.3334 13.3386 17.5834 13.3386 16.6667Z" fill="#1B1B1B" fill-opacity="0.6"/>
</svg>
