<svg width="20" height="20" viewBox="0 0 20 20" fill="none" xmlns="http://www.w3.org/2000/svg">
<path fill-rule="evenodd" clip-rule="evenodd" d="M15.0011 8.95833V13.125L16.0761 14.2C16.6011 14.725 16.2261 15.625 15.4844 15.625H4.5094C3.76773 15.625 3.40107 14.725 3.92607 14.2L5.00107 13.125V8.95833C5.00107 6.39167 6.3594 4.25833 8.75107 3.69167V3.125C8.75107 2.43333 9.3094 1.875 10.0011 1.875C10.6927 1.875 11.2511 2.43333 11.2511 3.125V3.69167C13.6344 4.25833 15.0011 6.4 15.0011 8.95833ZM11.6677 16.4583C11.6677 17.375 10.9177 18.125 10.0011 18.125C9.07607 18.125 8.33441 17.375 8.33441 16.4583H11.6677Z" fill="#1B1B1B" fill-opacity="0.6"/>
</svg>
