<svg width="14" height="14" viewBox="0 0 14 14" fill="none" xmlns="http://www.w3.org/2000/svg">
<path fill-rule="evenodd" clip-rule="evenodd" d="M7.00004 0.333374C3.32004 0.333374 0.333374 3.32004 0.333374 7.00004C0.333374 10.68 3.32004 13.6667 7.00004 13.6667C10.68 13.6667 13.6667 10.68 13.6667 7.00004C13.6667 3.32004 10.68 0.333374 7.00004 0.333374ZM9.82679 4.17337C9.04679 3.39337 8.02679 3.00004 7.00012 3.00004V7.00004L4.17345 9.82671C5.73345 11.3867 8.26679 11.3867 9.83345 9.82671C11.3935 8.26671 11.3935 5.73337 9.82679 4.17337ZM1.66671 7.00004C1.66671 9.94671 4.05337 12.3334 7.00004 12.3334C9.94671 12.3334 12.3334 9.94671 12.3334 7.00004C12.3334 4.05337 9.94671 1.66671 7.00004 1.66671C4.05337 1.66671 1.66671 4.05337 1.66671 7.00004Z" fill="white"/>
</svg>
