<svg width="21" height="21" viewBox="0 0 21 21" fill="none" xmlns="http://www.w3.org/2000/svg">
<path fill-rule="evenodd" clip-rule="evenodd" d="M13.2882 12.6627H13.9795L17.6895 16.3902C18.0482 16.7489 18.0482 17.3352 17.6895 17.6939C17.3307 18.0527 16.7445 18.0527 16.3857 17.6939L12.667 13.9752V13.2839L12.4307 13.0389C11.2057 14.0889 9.53449 14.6314 7.75824 14.3339C5.32574 13.9227 3.38324 11.8927 3.08574 9.44266C2.63074 5.74141 5.74574 2.62641 9.44699 3.08141C11.897 3.37891 13.927 5.32141 14.3382 7.75391C14.6357 9.53016 14.0932 11.2014 13.0432 12.4264L13.2882 12.6627ZM4.79198 8.72516C4.79198 10.9039 6.55073 12.6627 8.72948 12.6627C10.9082 12.6627 12.667 10.9039 12.667 8.72516C12.667 6.54641 10.9082 4.78766 8.72948 4.78766C6.55073 4.78766 4.79198 6.54641 4.79198 8.72516Z" fill="white"/>
</svg>
