<svg width="18" height="18" viewBox="0 0 18 18" fill="none" xmlns="http://www.w3.org/2000/svg">
<g id="rate_review_24px">
<path id="icon/maps/rate_review_24px" fill-rule="evenodd" clip-rule="evenodd" d="M15 1.5H3C2.175 1.5 1.5 2.175 1.5 3V16.5L4.5 13.5H15C15.825 13.5 16.5 12.825 16.5 12V3C16.5 2.175 15.825 1.5 15 1.5ZM4.5 10.5V8.6475L9.66 3.4875C9.81 3.3375 10.0425 3.3375 10.1925 3.4875L11.52 4.815C11.67 4.965 11.67 5.1975 11.52 5.3475L6.3525 10.5H4.5ZM7.875 10.5H12.75C13.1625 10.5 13.5 10.1625 13.5 9.75C13.5 9.3375 13.1625 9 12.75 9H9.375L7.875 10.5Z" fill="#3DCBB1"/>
</g>
</svg>
